<svg width="22" height="13" viewBox="0 0 22 13" fill="none" xmlns="http://www.w3.org/2000/svg">
<path d="M1.80273 0.403609L1.80079 0.40104C1.47006 -0.0410761 0.843557 -0.131489 0.401302 0.19913C-0.0410391 0.529814 -0.131555 1.15648 0.19913 1.59882L1.00006 1.00006C0.19913 1.59882 0.199882 1.59982 0.199882 1.59982L0.201115 1.60147L0.205016 1.60666L0.218503 1.6245C0.229999 1.63965 0.24648 1.66126 0.26777 1.6889C0.310346 1.74418 0.372194 1.8236 0.451919 1.92373C0.6113 2.1239 0.842529 2.40733 1.13443 2.74632C1.71697 3.42285 2.54734 4.32791 3.53577 5.23634C3.87681 5.54977 4.23918 5.86594 4.61908 6.1747L2.20006 9.40006C1.86869 9.84189 1.95823 10.4687 2.40006 10.8001C2.84189 11.1314 3.46869 11.0419 3.80006 10.6001L6.23487 7.35365C6.46453 7.50156 6.69792 7.64318 6.93441 7.77685C7.88505 8.31422 8.92444 8.74527 10.0001 8.91818V12.0001C10.0001 12.5523 10.4478 13.0001 11.0001 13.0001C11.5523 13.0001 12.0001 12.5523 12.0001 12.0001V8.91818C13.0757 8.74527 14.1151 8.31422 15.0657 7.77685C15.3022 7.64318 15.5356 7.50156 15.7653 7.35365L18.2001 10.6001C18.5314 11.0419 19.1582 11.1314 19.6001 10.8001C20.0419 10.4687 20.1314 9.84189 19.8001 9.40006L17.381 6.1747C17.7609 5.86594 18.1233 5.54977 18.4643 5.23634C19.4528 4.32791 20.2832 3.42285 20.8657 2.74632C21.1576 2.40733 21.3888 2.1239 21.5482 1.92373C21.6279 1.8236 21.6898 1.74418 21.7324 1.6889C21.7536 1.66126 21.7701 1.63965 21.7816 1.6245L21.7951 1.60666L21.801 1.59882C21.801 1.59882 21.801 1.59882 21.0001 1.00006L21.801 1.59882C22.1317 1.15648 22.0412 0.529814 21.5988 0.19913C21.1566 -0.131481 20.5299 -0.0407871 20.1991 0.401302L20.1974 0.403609L20.1882 0.415784L20.1479 0.468442C20.1115 0.515708 20.0563 0.586673 19.9836 0.677951C19.8382 0.860591 19.6233 1.12404 19.3501 1.4413C18.8025 2.07727 18.0267 2.92221 17.111 3.76378C16.1922 4.60823 15.1535 5.42982 14.0815 6.03577C13.0023 6.64582 11.9549 7.00006 11.0001 7.00006C10.0452 7.00006 8.99782 6.64582 7.91859 6.03577C6.84664 5.42982 5.80795 4.60823 4.88913 3.76378C3.97343 2.92221 3.19761 2.07727 2.64999 1.4413C2.3768 1.12404 2.16196 0.860591 2.01654 0.677951C1.94386 0.586673 1.88862 0.515708 1.85222 0.468442L1.81193 0.415784L1.80273 0.403609Z" fill="#AFAFAF"/>
</svg>
